<svg width="62" height="60" viewBox="0 0 62 60" fill="none" xmlns="http://www.w3.org/2000/svg">
<path d="M59.0585 30.2703C60.1298 29.2248 60.8873 27.9006 61.2455 26.4472C61.6036 24.9938 61.5481 23.4691 61.0851 22.0456C60.6222 20.6222 59.7703 19.3565 58.6257 18.3918C57.4812 17.4271 56.0896 16.8018 54.6082 16.5865L44.5933 15.1313C44.1285 15.0636 43.6871 14.8839 43.3073 14.6076C42.9274 14.3313 42.6205 13.9668 42.413 13.5454L37.9346 4.47323C37.2723 3.13056 36.2475 2.00002 34.9761 1.20949C33.7048 0.418961 32.2375 0 30.7404 0C29.2433 0 27.776 0.418961 26.5047 1.20949C25.2333 2.00002 24.2085 3.13056 23.5462 4.47323L19.0678 13.5454C18.8603 13.9668 18.5534 14.3313 18.1735 14.6076C17.7937 14.8839 17.3523 15.0636 16.8875 15.1313L6.87255 16.5865C5.3907 16.8014 3.99854 17.4267 2.85352 18.3915C1.7085 19.3564 0.856289 20.6224 0.393273 22.0464C-0.0697427 23.4704 -0.125094 24.9955 0.233478 26.4493C0.592051 27.9031 1.35024 29.2275 2.42231 30.2729L9.67028 37.3338C10.0066 37.6613 10.2583 38.0655 10.4038 38.5118C10.5493 38.9581 10.5842 39.4331 10.5055 39.8958L8.79663 49.8672C8.54428 51.3421 8.70945 52.8581 9.27346 54.2439C9.83748 55.6298 10.7779 56.8303 11.9883 57.7098C13.1988 58.5893 14.6312 59.1127 16.1235 59.2209C17.6159 59.329 19.1087 59.0177 20.4334 58.3219L29.4005 53.6129C29.8157 53.3933 30.2783 53.2785 30.7481 53.2785C31.2178 53.2785 31.6805 53.3933 32.0957 53.6129L41.0628 58.3219C42.3869 59.0258 43.8827 59.3417 45.3783 59.2334C46.874 59.1251 48.3087 58.5969 49.5175 57.7096C50.7335 56.834 51.6778 55.6332 52.242 54.245C52.8063 52.8569 52.9675 51.3378 52.7072 49.8621L50.9804 39.8984C50.9015 39.4356 50.9363 38.9606 51.0818 38.5143C51.2273 38.0679 51.4791 37.6637 51.8156 37.3364L59.0585 30.2703ZM48.2314 33.665C47.3 34.5731 46.6034 35.6941 46.2017 36.9313C45.8 38.1685 45.7052 39.4849 45.9255 40.7669L47.6344 50.7383C47.7266 51.2717 47.6675 51.8202 47.4638 52.3218C47.2602 52.8233 46.9202 53.2577 46.4823 53.5759C46.0444 53.8941 45.5261 54.0832 44.9862 54.1219C44.4463 54.1606 43.9064 54.0473 43.4276 53.7948L34.4605 49.0858C33.3091 48.4812 32.0281 48.1654 30.7276 48.1654C29.4271 48.1654 28.1461 48.4812 26.9947 49.0858L18.0276 53.7948C17.5488 54.0473 17.0089 54.1606 16.469 54.1219C15.9291 54.0832 15.4108 53.8941 14.9729 53.5759C14.535 53.2577 14.195 52.8233 13.9913 52.3218C13.7877 51.8202 13.7286 51.2717 13.8208 50.7383L15.5296 40.7695C15.7501 39.4871 15.6555 38.1703 15.2538 36.9326C14.8521 35.6949 14.1554 34.5735 13.2238 33.665L6.00146 26.6015C5.61459 26.2237 5.34103 25.7453 5.21167 25.2203C5.0823 24.6953 5.10228 24.1446 5.26934 23.6303C5.43641 23.1161 5.74391 22.6588 6.15713 22.31C6.57035 21.9613 7.07283 21.735 7.60785 21.6568L17.6228 20.2015C18.9099 20.0149 20.1323 19.5178 21.1844 18.7532C22.2365 17.9886 23.0866 16.9794 23.6615 15.8128L28.1399 6.74319C28.3997 6.28207 28.7775 5.89832 29.2344 5.63128C29.6914 5.36423 30.2111 5.2235 30.7404 5.2235C31.2697 5.2235 31.7894 5.36423 32.2464 5.63128C32.7033 5.89832 33.0811 6.28207 33.3409 6.74319L37.8193 15.8128C38.3942 16.9794 39.2443 17.9886 40.2964 18.7532C41.3485 19.5178 42.5709 20.0149 43.858 20.2015L53.8729 21.6568C54.408 21.735 54.9104 21.9613 55.3237 22.31C55.7369 22.6588 56.0444 23.1161 56.2115 23.6303C56.3785 24.1446 56.3985 24.6953 56.2691 25.2203C56.1398 25.7453 55.8662 26.2237 55.4793 26.6015L48.2314 33.665Z" fill="white"/>
</svg>
